<!-- Generated by IcoMoon.io -->
<svg version="1.1" xmlns="http://www.w3.org/2000/svg" width="1955" height="1024" viewBox="0 0 1955 1024">
<title></title>
<g id="icomoon-ignore">
</g>
<path d="M652.546 436.572h-0.034c-27.76 0-50.264 20.29-50.264 45.318v0.030c0 25.027 22.505 45.317 50.264 45.317h0.034c27.76 0 50.264-20.289 50.264-45.317v-0.030c0-25.027-22.505-45.318-50.264-45.318z"></path>
<path d="M1023.551 422.086c-0.079-34.764-15.429-68.083-42.689-92.667s-64.213-38.43-102.77-38.509v0c-38.568 0.063-75.536 13.903-102.812 38.488-27.274 24.586-42.633 57.914-42.712 92.688v191.7c0 0 290.95-29.217 290.984-191.671v-0.029z"></path>
<path d="M500.364 676.705c0.070 24.189 10.755 47.369 29.723 64.476s44.674 26.749 71.502 26.819c26.822-0.071 52.523-9.708 71.489-26.809s29.656-40.273 29.736-64.456v-133.389c0 0-202.449 20.345-202.449 133.359zM601.588 700.605c-5.243 0-10.368-1.402-14.727-4.029-4.359-2.625-7.757-6.358-9.763-10.725s-2.531-9.173-1.508-13.809c1.023-4.636 3.547-8.894 7.254-12.237s8.431-5.618 13.573-6.541c5.142-0.922 10.472-0.448 15.315 1.36s8.983 4.872 11.896 8.803c2.913 3.93 4.467 8.55 4.467 13.277 0.014 3.146-0.662 6.264-1.989 9.174s-3.277 5.555-5.739 7.784c-2.463 2.228-5.39 3.997-8.612 5.204s-6.678 1.828-10.167 1.828v-0.090z"></path>
<path d="M786.722 657.629v49.636h-10.227v-49.636h10.227zM806.494 678.834v7.977h-22.568v-7.977h22.568zM808.881 657.629v8.012h-24.954v-8.012h24.954zM855.586 681.288v2.353c0 3.773-0.512 7.159-1.535 10.159s-2.466 5.558-4.33 7.671c-1.863 2.091-4.090 3.693-6.682 4.807-2.568 1.114-5.42 1.67-8.556 1.67-3.114 0-5.966-0.556-8.557-1.67-2.568-1.114-4.795-2.716-6.682-4.807-1.886-2.113-3.352-4.671-4.397-7.671-1.023-3-1.535-6.386-1.535-10.159v-2.353c0-3.796 0.512-7.182 1.535-10.159 1.023-3 2.466-5.558 4.329-7.671 1.887-2.113 4.115-3.727 6.683-4.841 2.59-1.114 5.442-1.671 8.556-1.671 3.137 0 5.989 0.557 8.557 1.671 2.59 1.114 4.817 2.728 6.682 4.841 1.886 2.113 3.341 4.671 4.364 7.671 1.045 2.977 1.569 6.363 1.569 10.159zM845.256 683.641v-2.42c0-2.637-0.239-4.955-0.717-6.955s-1.181-3.682-2.113-5.046-2.068-2.387-3.409-3.069c-1.341-0.704-2.874-1.057-4.602-1.057s-3.262 0.353-4.602 1.057c-1.318 0.682-2.442 1.705-3.375 3.069-0.91 1.364-1.602 3.045-2.079 5.046s-0.717 4.318-0.717 6.955v2.42c0 2.614 0.239 4.931 0.717 6.954 0.477 2 1.181 3.693 2.113 5.079 0.932 1.364 2.068 2.398 3.409 3.102s2.874 1.058 4.602 1.058c1.727 0 3.262-0.353 4.602-1.058s2.466-1.738 3.375-3.102c0.91-1.386 1.602-3.079 2.079-5.079 0.478-2.022 0.717-4.34 0.717-6.954zM888.79 694.277c0-0.886-0.136-1.681-0.41-2.385-0.25-0.727-0.727-1.387-1.431-1.978-0.705-0.613-1.693-1.216-2.966-1.806s-2.921-1.206-4.943-1.841c-2.25-0.727-4.387-1.546-6.409-2.455-2-0.909-3.773-1.965-5.318-3.17-1.523-1.228-2.728-2.648-3.614-4.262-0.863-1.613-1.295-3.489-1.295-5.625 0-2.068 0.455-3.942 1.364-5.625 0.909-1.704 2.182-3.158 3.818-4.364 1.636-1.226 3.568-2.17 5.796-2.829 2.249-0.66 4.715-0.989 7.397-0.989 3.658 0 6.853 0.66 9.579 1.977 2.728 1.318 4.842 3.126 6.342 5.421 1.522 2.295 2.283 4.92 2.283 7.874h-10.159c0-1.455-0.307-2.728-0.92-3.818-0.591-1.114-1.5-1.989-2.728-2.625-1.204-0.637-2.728-0.954-4.568-0.954-1.772 0-3.25 0.272-4.431 0.818-1.182 0.522-2.068 1.238-2.659 2.148-0.591 0.886-0.887 1.886-0.887 3 0 0.84 0.205 1.602 0.613 2.284 0.432 0.682 1.068 1.317 1.91 1.908s1.875 1.149 3.102 1.671c1.228 0.522 2.647 1.033 4.261 1.534 2.704 0.818 5.079 1.738 7.125 2.761 2.068 1.023 3.796 2.17 5.182 3.443s2.432 2.716 3.137 4.33c0.704 1.614 1.057 3.443 1.057 5.489 0 2.159-0.421 4.090-1.261 5.795s-2.057 3.148-3.648 4.33-3.489 2.079-5.694 2.693c-2.204 0.614-4.67 0.92-7.397 0.92-2.454 0-4.874-0.318-7.261-0.954-2.387-0.659-4.557-1.648-6.512-2.966-1.932-1.318-3.477-3-4.636-5.046s-1.738-4.466-1.738-7.261h10.261c0 1.545 0.239 2.852 0.716 3.92s1.147 1.932 2.012 2.591c0.886 0.659 1.932 1.136 3.136 1.431 1.228 0.296 2.568 0.443 4.023 0.443 1.772 0 3.227-0.25 4.364-0.749 1.159-0.5 2.012-1.194 2.557-2.081 0.569-0.886 0.853-1.886 0.853-3zM928.165 657.629v49.636h-10.193v-49.636h10.193zM943.438 657.629v8.012h-40.5v-8.012h40.5zM982.573 699.288v7.977h-26.42v-7.977h26.42zM959.494 657.629v49.636h-10.227v-49.636h10.227zM979.13 677.845v7.773h-22.977v-7.773h22.977zM982.54 657.629v8.012h-26.387v-8.012h26.387zM988.539 657.629h18.512c3.795 0 7.056 0.568 9.784 1.705 2.75 1.137 4.863 2.818 6.341 5.046s2.216 4.966 2.216 8.215c0 2.66-0.454 4.944-1.364 6.853-0.886 1.886-2.147 3.466-3.784 4.738-1.613 1.251-3.511 2.25-5.693 3.001l-3.238 1.704h-16.091l-0.069-7.977h11.966c1.795 0 3.284-0.319 4.466-0.954 1.182-0.637 2.068-1.523 2.659-2.66 0.614-1.136 0.92-2.454 0.92-3.954 0-1.591-0.296-2.966-0.886-4.125s-1.489-2.046-2.694-2.659-2.716-0.92-4.534-0.92h-8.285v41.624h-10.227v-49.636zM1016.29 707.265l-11.319-22.124 10.808-0.069 11.454 21.716v0.477h-10.943zM1069.983 689.572h-12.649v-7.977h12.649c1.954 0 3.544-0.319 4.772-0.954 1.228-0.66 2.125-1.569 2.694-2.728s0.852-2.466 0.852-3.92c0-1.478-0.284-2.853-0.852-4.125s-1.466-2.296-2.694-3.069-2.818-1.159-4.772-1.159h-9.103v41.624h-10.227v-49.636h19.33c3.885 0 7.216 0.705 9.989 2.114 2.795 1.386 4.931 3.306 6.408 5.761s2.217 5.261 2.217 8.42c0 3.205-0.739 5.978-2.217 8.318s-3.613 4.148-6.408 5.421c-2.773 1.272-6.103 1.908-9.989 1.908zM1128.96 699.288v7.977h-26.42v-7.977h26.42zM1105.88 657.629v49.636h-10.227v-49.636h10.227zM1125.517 677.845v7.773h-22.977v-7.773h22.977zM1128.926 657.629v8.012h-26.387v-8.012h26.387zM1157.801 657.629v49.636h-10.192v-49.636h10.192zM1173.073 657.629v8.012h-40.499v-8.012h40.499zM1212.207 699.288v7.977h-26.415v-7.977h26.415zM1189.132 657.629v49.636h-10.228v-49.636h10.228zM1208.762 677.845v7.773h-22.97v-7.773h22.97zM1212.172 657.629v8.012h-26.38v-8.012h26.38zM1218.176 657.629h18.513c3.793 0 7.052 0.568 9.786 1.705 2.746 1.137 4.864 2.818 6.342 5.046s2.211 4.966 2.211 8.215c0 2.66-0.454 4.944-1.361 6.853-0.884 1.886-2.153 3.466-3.782 4.738-1.617 1.251-3.514 2.25-5.702 3.001l-3.235 1.704h-16.093l-0.070-7.977h11.974c1.792 0 3.281-0.319 4.457-0.954 1.187-0.637 2.071-1.523 2.665-2.66 0.617-1.136 0.919-2.454 0.919-3.954 0-1.591-0.291-2.966-0.884-4.125s-1.489-2.046-2.7-2.659c-1.199-0.613-2.711-0.92-4.527-0.92h-8.285v41.624h-10.228v-49.636zM1245.929 707.265l-11.322-22.124 10.81-0.069 11.45 21.716v0.477h-10.938zM1288.739 694.277c0-0.886-0.128-1.681-0.407-2.385-0.244-0.727-0.721-1.387-1.431-1.978-0.698-0.613-1.687-1.216-2.967-1.806-1.268-0.591-2.921-1.206-4.934-1.841-2.257-0.727-4.387-1.546-6.412-2.455-2.001-0.909-3.77-1.965-5.318-3.17-1.524-1.228-2.735-2.648-3.619-4.262-0.861-1.613-1.292-3.489-1.292-5.625 0-2.068 0.454-3.942 1.361-5.625 0.908-1.704 2.188-3.158 3.817-4.364 1.641-1.226 3.572-2.17 5.795-2.829 2.257-0.66 4.724-0.989 7.401-0.989 3.654 0 6.854 0.66 9.577 1.977 2.735 1.318 4.841 3.126 6.342 5.421 1.524 2.295 2.281 4.92 2.281 7.874h-10.159c0-1.455-0.303-2.728-0.919-3.818-0.582-1.114-1.501-1.989-2.723-2.625-1.21-0.637-2.723-0.954-4.573-0.954-1.769 0-3.247 0.272-4.433 0.818-1.175 0.522-2.060 1.238-2.653 2.148-0.593 0.886-0.884 1.886-0.884 3 0 0.84 0.198 1.602 0.617 2.284 0.431 0.682 1.059 1.317 1.908 1.908 0.838 0.591 1.873 1.149 3.095 1.671 1.233 0.522 2.653 1.033 4.259 1.534 2.711 0.818 5.085 1.738 7.133 2.761 2.060 1.023 3.793 2.17 5.178 3.443s2.432 2.716 3.142 4.33c0.698 1.614 1.047 3.443 1.047 5.489 0 2.159-0.419 4.090-1.257 5.795s-2.060 3.148-3.654 4.33c-1.583 1.181-3.479 2.079-5.69 2.693-2.199 0.614-4.666 0.92-7.401 0.92-2.444 0-4.864-0.318-7.261-0.954-2.385-0.659-4.55-1.648-6.505-2.966-1.932-1.318-3.479-3-4.643-5.046-1.152-2.046-1.734-4.466-1.734-7.261h10.263c0 1.545 0.233 2.852 0.71 3.92s1.152 1.932 2.013 2.591c0.884 0.659 1.932 1.136 3.142 1.431 1.222 0.296 2.56 0.443 4.015 0.443 1.78 0 3.235-0.25 4.364-0.749 1.164-0.5 2.013-1.194 2.56-2.081 0.57-0.886 0.849-1.886 0.849-3z"></path>
</svg>
